<svg width="184" height="40" viewBox="0 0 184 40" fill="none" xmlns="http://www.w3.org/2000/svg">
<g clip-path="url(#clip0_53_1641)">
<path d="M19.465 19.7926V28.0638H4.99917V19.7926H3.10645V39.5892H4.99917V29.9621H19.3298V39.5892H21.2225V19.7926H19.465Z" fill="#5AA947"/>
<path d="M36.4997 34.0299C36.2293 35.1146 35.6885 36.0637 34.8773 36.7417C33.7958 37.6909 32.4438 38.2332 31.0919 38.0976C29.3343 38.2332 27.712 37.4197 26.7656 36.0637C25.9545 34.7078 25.5489 33.2163 25.4137 31.7248H38.5276C38.5276 30.3688 38.3924 29.1485 38.122 27.7926C37.8516 26.7078 37.446 25.7587 36.77 24.8095C35.4181 22.9112 33.255 21.8265 31.0919 21.9621C28.7936 21.9621 26.7656 23.0468 25.4137 24.8095C24.1969 26.5722 23.521 28.7417 23.521 30.9112C23.3858 33.0807 24.0617 35.2502 25.2785 37.1485C26.6304 39.0468 28.7936 39.996 31.0919 39.8604C32.8494 39.8604 34.6069 39.318 36.0941 38.0976C37.3156 37.0003 38.1265 35.5172 38.3924 33.8943L36.4997 34.0299ZM26.0897 27.657C26.3601 26.979 26.6304 26.4366 27.1712 25.8943C28.1176 24.5383 29.7399 23.8604 31.3623 23.8604C32.1556 23.8575 32.9403 24.0256 33.6633 24.353C34.3863 24.6805 35.0309 25.1599 35.5533 25.7587C36.4997 26.979 36.9052 28.3349 37.0404 29.8265H25.6841C25.5489 29.1485 25.8193 28.3349 26.0897 27.657Z" fill="#5AA947"/>
<path d="M131.407 34.0299C131.136 35.1146 130.596 36.0637 129.785 36.7417C128.703 37.6909 127.351 38.2332 125.999 38.0976C124.242 38.2332 122.619 37.4197 121.673 36.0637C120.862 34.7078 120.456 33.2163 120.321 31.7248H133.435C133.435 30.3688 133.3 29.1485 133.029 27.7926C132.759 26.7078 132.353 25.7587 131.677 24.8095C130.325 22.9112 128.162 21.8265 125.999 21.9621C123.701 21.9621 121.673 23.0468 120.321 24.8095C119.104 26.5722 118.428 28.7417 118.428 30.9112C118.293 33.0807 118.969 35.2502 120.186 37.1485C121.538 39.0468 123.701 39.996 125.999 39.8604C127.757 39.8604 129.514 39.318 131.001 38.0976C132.223 37.0003 133.034 35.5172 133.3 33.8943L131.407 34.0299ZM120.997 27.657C121.267 26.979 121.538 26.4366 122.078 25.8943C123.025 24.5383 124.647 23.8604 126.269 23.8604C127.063 23.8575 127.848 24.0256 128.571 24.353C129.294 24.6805 129.938 25.1599 130.461 25.7587C131.407 26.979 131.812 28.3349 131.948 29.8265H120.591C120.456 29.1485 120.727 28.3349 120.997 27.657Z" fill="black"/>
<path d="M54.6158 37.0128C54.4806 37.1484 54.4806 37.1484 54.6158 37.0128C53.9548 37.9397 53.0821 38.6942 52.0707 39.2132C51.0592 39.7322 49.9385 40.0006 48.8024 39.9959C46.5041 39.9959 44.341 39.0467 42.989 37.1484C40.4203 33.4874 40.4203 28.606 42.989 24.8094C45.1521 22.0976 48.9376 21.284 52.0471 22.7755C52.9934 23.3179 53.9398 23.9959 54.6158 24.945V22.3688H56.5085V39.5891H54.6158V37.0128ZM54.6158 31.0467C54.6158 29.284 54.075 27.5213 53.1286 26.1654C52.1823 24.8094 50.5599 23.9959 48.8024 23.9959C47.9521 23.9232 47.0982 24.0873 46.3349 24.4701C45.5716 24.8529 44.9284 25.4395 44.4762 26.1654C43.3853 27.5466 42.8542 29.2898 42.989 31.0467C42.989 32.8094 43.5298 34.5721 44.4762 36.0637C45.4225 37.4196 47.1801 38.2332 48.8024 38.2332C50.5599 38.2332 52.1823 37.4196 53.1286 36.0637C54.075 34.4366 54.6158 32.8094 54.6158 31.0467ZM60.9699 35.9281C60.9699 37.1484 61.5107 37.8264 62.4571 37.8264H63.2682C63.6738 37.8264 63.9442 37.8264 64.485 37.6908V39.4535C63.9442 39.4535 63.4034 39.5891 63.133 39.5891H62.4571C60.2939 39.5891 59.2124 38.3688 59.2124 35.9281V16.1315H61.1051L60.9699 35.9281ZM71.6503 24.2671H68V39.5891H66.1073V24.2671H64.2146V22.3688H66.1073V19.1145L68 17.7586V22.3688H71.5151V24.2671H71.6503ZM72.7319 16.4027H74.6246V24.4027C75.1654 23.7247 75.8413 23.1823 76.6525 22.7755C77.5989 22.3688 78.5452 22.2332 79.6268 22.2332C80.438 22.2332 81.3843 22.3688 82.0603 22.6399C82.7363 22.9111 83.4122 23.3179 84.0882 23.8603C84.629 24.4027 85.0346 25.0806 85.4402 25.8942C85.7105 26.7077 85.9809 27.6569 85.8457 28.606V39.7247H84.0882V28.7416C84.0882 28.0637 83.953 27.3857 83.6826 26.7077C83.4122 26.1654 83.1418 25.7586 82.7363 25.3518C82.3307 24.945 81.9251 24.6738 81.3843 24.5382C80.8435 24.4027 80.3028 24.2671 79.762 24.2671C78.9508 24.2671 78.2748 24.4027 77.5989 24.8094C76.9229 25.0806 76.3821 25.623 75.9765 26.1654C75.5709 26.7077 75.1654 27.3857 75.0302 28.0637C74.7598 28.7416 74.7598 29.5552 74.7598 30.3688V39.9959H72.867L72.7319 16.4027Z" fill="#5AA947"/>
<path d="M105.179 33.3518C105.179 34.4366 104.909 35.3857 104.503 36.3349C104.01 37.2105 103.315 37.9545 102.475 38.5044C101.664 39.0467 100.853 39.3179 99.9067 39.5891C98.9603 39.8603 97.8787 39.9959 96.7972 39.9959C95.4452 39.9959 94.2285 39.8603 93.0117 39.4535C91.9302 39.1823 90.9838 38.64 90.1726 37.962C88.4151 36.4705 87.4688 34.0298 87.4688 30.7756H89.3615C89.3615 35.6569 91.795 38.0976 96.7972 38.0976C98.4195 38.0976 99.9067 37.6908 101.394 36.8773C102.07 36.4705 102.475 35.9281 102.881 35.2501C103.287 34.5722 103.422 33.8942 103.422 33.2162C103.422 31.1823 102.205 29.8264 99.9067 29.0128C99.7715 29.0128 99.5011 28.8773 99.2307 28.8773C98.9603 28.8773 98.8251 28.7417 98.5547 28.7417L95.4452 27.9281L92.2006 27.1145C89.3615 26.1654 88.0095 24.2671 88.0095 21.5552C87.8743 19.5213 88.9559 17.4874 90.7134 16.4027C92.3358 15.4535 94.3637 14.9111 96.2564 15.0467C101.664 15.0467 104.638 17.7586 104.774 23.1823H102.881C102.746 18.9789 100.583 16.945 96.2564 16.945C94.7693 16.8095 93.1469 17.2162 91.795 18.0298C90.5782 18.7078 89.7671 20.0637 89.9023 21.5552C89.9023 23.4535 91.119 24.8095 93.4173 25.4874C94.0933 25.623 94.6341 25.8942 95.31 26.0298C95.986 26.1654 96.5268 26.301 97.2028 26.5722C97.8787 26.7078 98.4195 26.8434 99.0955 27.1145L100.988 27.6569C103.557 28.1993 105.314 30.64 105.179 33.3518ZM109.1 20.6061H107.207V16.2671H109.1V20.6061ZM109.1 39.5891H107.207V22.3688H109.1V39.5891ZM117.752 24.2671H114.237V39.5891H112.345V24.2671H110.452V22.3688H112.345V19.1145L114.237 17.7586V22.3688H117.752V24.2671Z" fill="black"/>
<path d="M40.9617 18.5722V18.0298L41.3673 18.5722H40.9617ZM43.5304 18.7078L43.6656 18.4366C43.6656 18.4366 43.8008 18.4366 43.8008 18.5722L43.5304 18.7078ZM47.9919 18.8434H47.8567H47.4511C46.6399 18.8434 45.8287 18.7078 45.0176 18.5722H44.8824H44.612H43.6656L43.5304 18.301L40.9617 18.1654L41.0969 16.9451H40.8265C40.5562 16.9451 40.2858 16.9451 40.1506 17.0807L40.5562 18.7078L40.6913 18.301L40.9617 18.5722H40.6913H40.5562H40.2858H40.0154H38.7986C38.2578 18.5722 37.7171 18.5722 37.3115 18.4366H37.1763H37.0411C36.0947 18.7078 35.0132 18.8434 34.0668 18.7078C31.6333 18.5722 29.1998 17.7586 27.1719 16.4027C29.0646 15.318 31.0925 14.5044 33.1204 14.0976L35.0132 13.8264L33.6612 12.4705C32.4445 11.1146 31.4981 9.62305 30.6869 7.99593C32.1741 8.13152 33.6612 8.40271 35.0132 8.80949L36.5003 9.35186L36.2299 7.86033C35.1484 7.99593 34.202 7.31796 34.0668 6.36881C33.9316 5.28406 34.6076 4.33491 35.5539 4.19932C36.6355 4.06372 37.5819 4.74169 37.7171 5.69084L38.7986 6.91118L39.3394 5.28406C39.745 4.06372 40.1506 2.84339 40.8265 1.62305C41.4791 2.79041 42.0222 4.01601 42.4489 5.28406L42.9897 6.91118L44.0712 5.69084C44.2064 4.6061 45.1528 3.92813 46.2343 4.19932C47.3159 4.33491 47.9919 5.28406 47.7215 6.36881C47.5863 7.45356 46.6399 8.13152 45.5584 7.86033L45.288 9.35186L46.7751 8.94508C48.1271 8.5383 49.6142 8.26712 51.1013 8.13152C50.2902 9.62305 49.3438 11.1146 48.2623 12.4705L47.0455 13.8264L48.9382 13.962C51.1013 14.2332 53.1293 15.0468 55.022 16.2671C52.8589 17.7586 50.4254 18.5722 47.9919 18.8434Z" fill="white"/>
<path d="M41.2308 9.3519C41.366 9.08072 41.5012 8.67394 41.6364 8.40275C42.1772 7.18241 42.8532 6.23326 43.6643 5.28411C43.1236 3.3858 42.1772 1.62309 41.0956 -0.00402832C40.1493 1.62309 39.3381 3.3858 38.7973 5.28411C39.6085 6.23326 40.4197 7.31801 40.8253 8.40275C40.9604 8.67394 41.0956 9.08072 41.2308 9.3519ZM38.1214 9.08072C38.1214 7.72479 38.3917 6.50445 38.7973 5.28411C37.851 4.33496 36.9046 3.3858 35.6879 2.57224C35.4175 4.47055 35.2823 6.36885 35.5527 8.26716C36.499 8.53834 37.3102 8.94512 38.1214 9.4875V9.08072Z" fill="#98CA40"/>
<path d="M44.3408 9.3519C45.1519 8.80953 45.9631 8.40275 46.9095 8.13156C47.1799 6.23326 47.0447 4.33495 46.7743 2.43665C45.6927 3.2502 44.6112 4.06376 43.6648 5.14851C44.0704 6.36885 44.2056 7.72478 44.3408 8.94512V9.3519ZM38.3922 14.0977C37.3987 13.0885 36.6172 11.8897 36.0939 10.5722C35.8235 9.89427 35.5531 9.08071 35.5531 8.26715C33.5252 7.58919 31.4973 7.318 29.3342 7.4536C30.2805 9.62309 31.4973 11.7926 33.1196 13.5553H34.066C35.5531 13.4197 37.0403 13.6909 38.3922 14.0977ZM44.2056 13.9621C45.5575 13.5553 46.9095 13.2841 48.3966 13.2841H49.343C50.8301 11.5214 52.0469 9.48749 52.9932 7.318C50.9653 7.318 48.8022 7.58919 46.9095 8.13156C46.7743 8.94512 46.6391 9.75868 46.2335 10.4366C45.8279 11.7926 45.1519 13.0129 44.2056 13.9621ZM34.7419 15.1824C34.066 14.7756 33.5252 14.2333 32.9844 13.5553C30.2805 14.0977 27.5766 15.1824 25.2783 16.8095C25.2783 16.8095 29.7397 20.0638 33.9308 20.0638C37.8514 20.0638 40.1497 18.7078 40.4201 17.0807C39.0682 17.3519 37.0403 16.6739 34.7419 15.1824Z" fill="#98CA40"/>
<path d="M49.3429 13.4197C48.8022 14.0976 48.1262 14.64 47.4502 15.1824C45.8279 16.4027 43.9351 17.0807 41.9072 17.0807C42.3128 18.7078 44.6111 19.7926 48.3966 19.7926C52.5876 19.7926 57.049 16.5383 57.049 16.5383C54.7507 15.0468 52.0468 13.9621 49.3429 13.4197Z" fill="#98CA40"/>
<path d="M48.2619 13.2841C46.7748 13.2841 45.4228 13.4197 44.0709 13.9621C45.0173 13.0129 45.6932 11.7926 46.0988 10.5722C46.3692 9.89425 46.6396 9.08069 46.7748 8.26714C45.8284 8.53832 45.0173 8.9451 44.2061 9.48747V9.21629C44.2061 7.86036 43.9357 6.64002 43.5301 5.41968C42.7189 6.36883 41.9078 7.45358 41.5022 8.53832C41.367 8.80951 41.2318 9.21629 41.0966 9.48747C40.9614 9.21629 40.8262 8.80951 40.691 8.53832C40.1502 7.31798 39.4743 6.36883 38.6631 5.41968C38.2575 6.64002 37.9871 7.99595 37.9871 9.21629V9.48747C37.176 8.9451 36.3648 8.67392 35.4184 8.26714C35.5536 9.08069 35.6888 9.89425 35.9592 10.5722C36.5 11.9282 37.176 13.1485 38.2575 14.0976C36.9056 13.5553 35.4184 13.4197 34.0665 13.4197H33.1201L34.8776 15.0468C37.176 16.6739 39.2039 17.2163 40.5558 16.9451C40.9614 16.8095 41.367 16.8095 41.7726 16.9451C43.8005 16.9451 45.6932 16.2671 47.3156 15.0468C47.9915 14.5044 48.6675 13.9621 49.2083 13.2841H48.2619Z" fill="#5AA947"/>
<path d="M47.9911 19.9282L45.4224 19.5214L42.0426 19.2502H38.6627C37.8515 19.3858 37.0404 19.5214 36.3644 19.7926C36.094 19.9282 35.6884 20.0638 35.418 20.0638C35.1476 20.0638 35.2828 19.9282 35.2828 19.657V16.9451V15.5892C35.5532 15.4536 35.9588 15.996 36.094 16.1316C36.4996 16.5384 36.9052 16.8095 37.3107 17.0807C37.8515 17.4875 38.5275 17.7587 39.2035 17.8943C39.6091 18.0299 40.1498 18.0299 40.6906 18.0299C41.2314 17.8943 41.7722 17.8943 42.1778 17.8943H42.8537H43.8001C44.0705 17.7587 44.4761 17.6231 44.7465 17.4875C45.0168 17.3519 45.152 17.2163 45.4224 17.0807C45.6928 16.9451 45.828 16.8095 46.0984 16.674C46.3688 16.4028 46.6392 16.2672 46.9096 15.996C47.18 15.8604 47.3152 15.5892 47.5855 15.4536H48.1263L47.9911 19.9282Z" fill="#98CA40"/>
<path d="M45.828 17.3518C45.2873 17.2162 44.6113 16.945 44.0705 16.945H43.6649C43.3945 16.8094 43.2593 16.6738 42.989 16.5382C42.7186 16.2671 42.5834 15.9959 42.4482 15.7247C42.4482 15.4535 42.4482 15.0467 42.5834 14.7755L43.1242 12.4704C43.1242 12.0637 43.2593 11.3857 43.2593 11.1145C43.2593 10.8433 43.2593 10.8433 43.6649 10.301C44.0705 9.62299 44.3409 8.94502 44.6113 8.13147C44.7465 7.86028 44.7465 7.4535 44.8817 7.18231C44.8817 7.04672 44.6113 6.77553 44.3409 6.50435C44.0705 6.23316 42.5834 5.4196 42.313 5.28401C42.0426 5.14841 41.7722 4.87723 41.637 4.47045C41.5018 4.06367 41.3666 3.65689 41.3666 3.25011V2.84333C41.3666 2.70774 41.3666 2.57214 41.2314 2.57214C41.0962 2.57214 41.0962 2.70774 41.0962 2.70774V2.57214C40.961 2.70774 40.961 2.70774 40.961 2.84333C40.961 2.97892 40.6906 3.79248 40.6906 3.92808C40.6906 4.06367 40.5555 4.47045 40.4203 4.60604C40.4203 4.74164 40.4203 4.74163 40.2851 4.87723C40.2851 5.01282 38.7979 5.82638 38.7979 5.82638C38.7979 5.82638 37.5812 6.50435 37.5812 6.63994C37.5812 6.77553 37.1756 6.91113 37.1756 7.04672V7.58909C37.3108 8.40265 37.5812 9.08062 37.9868 9.75858C37.9868 9.75858 38.5275 10.7077 38.5275 10.8433C38.6368 11.0515 38.6838 11.287 38.6627 11.5213C38.6627 12.1993 38.7979 12.7416 38.9331 13.4196L39.3387 14.9111C39.4739 15.1823 39.3387 15.5891 39.3387 15.8603C39.2035 16.4026 38.7979 16.8094 38.2571 16.945C37.9868 17.0806 37.7164 17.0806 37.446 17.0806C37.446 17.0806 35.9588 17.3518 35.5533 17.8942C35.5533 18.0298 35.4181 18.1654 35.5533 18.301C35.5533 18.5721 35.5532 19.1145 37.1756 19.3857C38.3923 19.5213 39.4739 19.6569 40.6906 19.5213H42.1778H42.989H43.3945C43.5297 19.5213 43.6649 19.6569 43.8001 19.5213C43.9353 19.3857 43.9353 19.3857 43.8001 19.3857C43.6649 19.3857 43.6649 19.2501 43.6649 19.2501H45.4225C45.9632 19.2501 46.6392 18.9789 46.6392 18.301C46.6392 17.623 45.9632 17.3518 45.828 17.3518ZM39.0683 9.3518C38.7979 9.08062 38.6627 8.67384 38.5275 8.40265C38.3923 8.13147 38.2571 7.72469 38.2571 7.72469V7.58909L39.3387 6.36875C39.7443 5.96197 40.1499 5.69079 40.5555 5.4196C40.6906 5.4196 40.8258 5.28401 40.8258 5.14841C40.8258 5.14841 40.8258 5.01282 40.961 5.01282C41.0962 5.14841 41.0962 5.28401 41.2314 5.28401C41.5018 5.4196 42.5834 6.36875 42.7186 6.50435C42.989 6.77553 43.2593 7.04672 43.3945 7.4535V7.72469C43.3945 7.86028 42.989 8.80943 42.8538 8.94502C42.7186 9.08062 42.0426 10.0298 41.9074 10.1654L41.637 10.4366H41.5018C41.5018 10.4366 41.3666 10.4366 41.3666 10.301C41.3666 10.1654 41.3666 10.0298 41.5018 9.89418C41.637 9.62299 41.7722 9.3518 41.7722 9.08062H41.9074C42.0426 9.08062 42.0426 8.80943 42.0426 8.80943C42.0426 8.80943 42.0426 8.40265 41.9074 8.53825V8.26706C41.9074 7.72469 41.9074 7.04672 41.2314 6.77553H40.6906H40.4203C40.2851 6.77553 40.0147 6.77553 39.8795 6.91113C39.6091 7.18231 39.4739 7.4535 39.4739 7.86028V8.26706C39.3387 8.26706 39.3387 8.26706 39.3387 8.40265C39.3387 8.53825 39.3387 8.67384 39.4739 8.94502L39.6091 9.08062C39.6091 9.21621 39.7443 9.21621 39.7443 9.3518C39.7443 9.4874 39.7443 9.62299 39.8795 9.62299C39.8795 9.75858 40.0147 9.75858 40.1499 9.89418C40.1499 10.0298 40.1499 10.0298 40.2851 10.1654C40.2851 10.1654 40.1499 10.1654 39.8795 9.89418C39.6091 9.62299 39.2035 9.4874 39.0683 9.3518ZM43.2593 18.9789C43.1242 18.8433 42.989 18.8433 42.8538 18.8433C42.7186 18.8433 42.4482 18.7077 42.313 18.7077C42.1778 18.5721 42.0426 18.5721 41.9074 18.4365C41.7722 18.301 41.637 18.301 41.5018 18.301C41.3666 18.301 41.2314 18.4365 41.0962 18.5721C40.961 18.7077 40.8258 18.7077 40.6906 18.7077H40.2851H39.8795C39.6091 18.7077 39.3387 18.5721 39.0683 18.5721C38.5275 18.4365 37.8516 18.301 37.5812 18.301H36.6348C36.9052 18.301 37.3108 18.1654 37.5812 18.301C37.8516 18.301 38.3923 18.4365 39.0683 18.5721C39.3387 18.5721 39.6091 18.7077 39.8795 18.7077H40.2851H40.6906C40.8258 18.7077 40.961 18.7077 40.961 18.5721C41.0962 18.4365 41.2314 18.4365 41.3666 18.301C41.5018 18.301 41.637 18.301 41.7722 18.4365C41.9074 18.5721 42.0426 18.5721 42.0426 18.7077C42.1778 18.8433 42.4482 18.8433 42.5834 18.8433C42.989 18.7077 43.1242 18.8433 43.2593 18.9789ZM44.3409 18.0298C43.9353 18.0298 43.5297 17.8942 43.2593 18.0298C42.8538 18.0298 42.313 18.1654 42.313 18.1654H42.0426H41.7722C41.637 18.1654 41.5018 18.0298 41.5018 18.0298C41.3666 17.8942 41.0962 17.8942 40.961 18.0298C40.8258 18.1654 40.6906 18.301 40.5555 18.301C40.2851 18.4365 40.0147 18.4365 39.7443 18.4365C40.0147 18.4365 40.2851 18.301 40.4203 18.1654C40.5555 18.1654 40.5555 18.0298 40.8258 17.8942C40.961 17.8942 41.0962 17.7586 41.2314 17.7586C41.3666 17.7586 41.5018 17.8942 41.5018 17.8942C41.637 18.0298 41.9074 18.0298 42.0426 18.0298H42.313C42.313 18.0298 42.7186 17.8942 43.2593 17.8942C43.5297 17.8942 43.9353 17.8942 44.3409 18.0298C44.6113 18.0298 44.8817 18.0298 45.0169 18.301C44.8817 18.1654 44.6113 18.0298 44.3409 18.0298Z" fill="white"/>
<path d="M7.02719 7.86031H3.91772V17.2162H3.10655V7.86031H-0.00292969V7.04675H7.02719V7.86031ZM15.6797 17.0807H14.8685V12.1993H8.78473V17.0807H7.97356V7.04675H8.78473V11.5213H14.8685V7.04675H15.6797V17.0807ZM23.521 17.0807H16.7612V7.04675H23.3858V7.86031H17.5724V11.5213H23.1154V12.3349H17.5724V16.4027H23.521V17.0807ZM136.814 39.4535C136.409 39.4535 136.138 39.3179 135.868 39.0468C135.622 38.7903 135.478 38.4529 135.462 38.0976C135.462 37.6908 135.597 37.4196 135.868 37.1484C136.138 36.8773 136.409 36.7417 136.814 36.7417C137.22 36.7417 137.49 36.8773 137.76 37.1484C138.006 37.4049 138.15 37.7423 138.166 38.0976C138.166 38.5044 138.031 38.7756 137.76 39.0468C137.49 39.3179 137.22 39.4535 136.814 39.4535ZM149.387 38.64C148.306 39.3179 147.089 39.5891 145.872 39.5891C144.25 39.5891 142.627 39.0468 141.411 37.8264C140.329 36.6061 139.653 34.8434 139.788 33.2162C139.653 31.3179 140.329 29.5552 141.546 28.1993C142.763 26.8434 144.52 26.1654 146.413 26.301C147.494 26.301 148.441 26.4366 149.387 26.979V29.0129C148.441 28.3349 147.494 28.0637 146.413 28.0637C145.196 28.0637 143.979 28.6061 143.168 29.4196C142.357 30.5044 141.816 31.7247 141.952 33.0807C141.816 34.4366 142.357 35.6569 143.168 36.6061C143.979 37.4196 145.196 37.962 146.278 37.962C147.359 37.962 148.576 37.5552 149.387 36.8773V38.64ZM156.958 39.4535C155.201 39.5891 153.578 38.9112 152.497 37.6908C151.28 36.3349 150.739 34.7078 150.874 32.9451C150.739 31.0468 151.415 29.284 152.632 27.9281C153.25 27.3132 153.992 26.8378 154.808 26.5338C155.624 26.2298 156.495 26.1042 157.364 26.1654C158.986 26.0298 160.608 26.7078 161.825 27.9281C162.907 29.284 163.583 31.0468 163.447 32.8095C163.583 34.5722 162.907 36.3349 161.69 37.6908C160.338 38.9112 158.716 39.5891 156.958 39.4535ZM157.093 27.7925C155.877 27.7925 154.795 28.1993 153.984 29.1484C153.173 30.2332 152.767 31.4535 152.902 32.8095C152.767 34.1654 153.308 35.3857 154.119 36.3349C154.93 37.284 156.012 37.6908 157.229 37.6908C158.445 37.8264 159.527 37.284 160.338 36.4705C161.149 35.3857 161.555 34.1654 161.42 32.8095C161.555 31.4535 161.149 30.2332 160.338 29.1484C159.392 28.1993 158.31 27.6569 157.093 27.7925ZM183.862 39.1823H181.834V31.8603C181.969 30.7756 181.699 29.6908 181.158 28.7417C180.617 28.0637 179.806 27.6569 178.995 27.7925C178.048 27.7925 177.237 28.1993 176.832 29.0129C176.156 29.8264 175.885 30.9112 175.885 31.8603V39.1823H173.857V31.5891C173.857 29.0129 172.911 27.7925 171.018 27.7925C170.072 27.7925 169.261 28.1993 168.855 28.8773C168.179 29.6908 167.909 30.7756 168.044 31.8603V39.1823H166.016V26.4366H168.044V28.4705C168.855 26.979 170.342 26.1654 171.965 26.1654C172.776 26.1654 173.587 26.4366 174.263 26.8434C174.939 27.3857 175.345 27.9281 175.615 28.7417C176.426 27.1145 178.048 26.0298 179.806 26.0298C182.645 26.0298 183.997 27.7925 183.997 31.1823L183.862 39.1823Z" fill="black"/>
</g>
<defs>
<clipPath id="clip0_53_1641">
<rect width="184" height="40" fill="white"/>
</clipPath>
</defs>
</svg>
